REM GENRE "Genre"
REM DATE 2013
REM DISCID 123456789
REM COMMENT "ExactAudioCopy v0.99pb4"
PERFORMER "Artist"
TITLE "Album"
FILE "en.wav" WAVE
  TRACK 01 AUDIO
    TITLE "Song01"
    INDEX 01 00:00:00
  TRACK 02 AUDIO
    TITLE "Song02"
    INDEX 01 03:39:10
  TRACK 03 AUDIO
    TITLE "Song03"
    INDEX 01 07:25:42
  TRACK 04 AUDIO
    TITLE "Song04"
    INDEX 01 12:04:72
